<svg xmlns="http://www.w3.org/2000/svg" width="318.337" height="99.811" viewBox="0 0 318.337 99.811">
  <g id="Group_29" data-name="Group 29" transform="translate(-19989 23049)">
    <path id="Path_280" data-name="Path 280" d="M45.284,12.8c-7.728-7.256-12.3-8.17-17.933-8.17C13.4,4.631,7.236,16.1,7.236,26.546c0,8.848,4.6,15.839,15.691,19.408l7.964,2.507c8.848,2.773,18.936,7.521,18.936,24.038,0,13.184-9.261,27.312-26.25,27.312-12.535,0-19.732-8.848-23.6-13.479L3.372,82.91c3.333,3.952,9.881,12.3,20.263,12.3,15.308,0,21.708-13.361,21.708-22.711,0-12.152-7.728-17.048-17.137-19.821l-5.752-1.711C13.784,48.46,2.664,42.62,2.664,26.546,2.664,11.09,13.518,0,27.351,0A28.935,28.935,0,0,1,48.794,9.38Z" transform="translate(19989.02 -23049)"/>
    <path id="Path_281" data-name="Path 281" d="M57.408,64.166l-4.542,1.593V58.385H52.6a17.225,17.225,0,0,1-14.895,8.436c-9.527,0-17.225-5.132-17.225-15.308V18.243l4.483-1.593V49.92A11.8,11.8,0,0,0,37.617,62.6a15.809,15.809,0,0,0,15.16-16.1V18.243l4.631-1.593Z" transform="translate(20028.982 -23016.541)"/>
    <path id="Path_282" data-name="Path 282" d="M42.022,95.573,37.45,97.165V2.133L42.022.54Z" transform="translate(20062.066 -23047.947)"/>
    <path id="Path_283" data-name="Path 283" d="M93.255.12V95.153l-4.572,1.593V86.334h-.265A23.6,23.6,0,0,1,67.772,97.807a25.6,25.6,0,1,1,0-51.2A23.124,23.124,0,0,1,88.418,58.4h.265V1.713ZM67.919,93.589A21.384,21.384,0,1,0,46.771,72.206,21.384,21.384,0,0,0,67.919,93.589Z" transform="translate(20071.268 -23048.766)"/>
    <path id="Path_284" data-name="Path 284" d="M68.983,50.337A21.59,21.59,0,0,0,103.61,56.8v5.28A25.631,25.631,0,1,1,88.184,15.887a22.682,22.682,0,0,1,19.85,10.53ZM101.634,25.65a16.96,16.96,0,0,0-12.8-5.545,21.8,21.8,0,0,0-21.944,21,26.191,26.191,0,0,0,.649,5.4Z" transform="translate(20111.232 -23018.049)"/>
    <path id="Path_285" data-name="Path 285" d="M80.36,19.165,84.9,17.6v7.374H85.2c2.065-3.952,4.306-7.9,13.066-8.436v5.28c-7.2,0-13.361,3.834-13.361,14.246V65.089L80.36,66.681Z" transform="translate(20145.719 -23016.756)"/>
    <path id="Path_286" data-name="Path 286" d="M88.77,18.842l4.6-1.563v6.459h.236a13.332,13.332,0,0,1,11.8-7.521,12.476,12.476,0,0,1,12.181,8.052,15.16,15.16,0,0,1,13.155-8.052c8.347,0,14.482,5.044,14.482,15.986V64.8l-4.572,1.593V32.056c0-6.076-2.743-11.621-9.91-11.621-4.837,0-11.385,4.1-11.385,13.6V64.8l-4.572,1.593V31.672c0-7.551-4.188-11.238-9.379-11.238-6.282,0-11.8,5.9-11.8,13.863V64.8l-4.6,1.593Z" transform="translate(20162.113 -23017.406)"/>
  </g>
</svg>
